<?xml version="1.0" encoding="UTF-8" standalone="no"?>
<svg
   xmlns:dc="http://purl.org/dc/elements/1.1/"
   xmlns:cc="http://creativecommons.org/ns#"
   xmlns:rdf="http://www.w3.org/1999/02/22-rdf-syntax-ns#"
   xmlns:svg="http://www.w3.org/2000/svg"
   xmlns="http://www.w3.org/2000/svg"
   xmlns:xlink="http://www.w3.org/1999/xlink"
   xmlns:sodipodi="http://sodipodi.sourceforge.net/DTD/sodipodi-0.dtd"
   xmlns:inkscape="http://www.inkscape.org/namespaces/inkscape"
   sodipodi:docname="fabien2.svg"
   inkscape:version="1.0 (4035a4fb49, 2020-05-01)"
   id="svg179"
   version="1.1"
   viewBox="0 0 291.04166 193.14583"
   height="730"
   width="1100">
  <defs
     id="defs173">
    <linearGradient
       gradientTransform="matrix(0.26458333,0,0,0.26458333,3.4571165,72.006656)"
       gradientUnits="userSpaceOnUse"
       y2="213.42027"
       x2="1020.2361"
       y1="213.42027"
       x1="392.84482"
       id="linearGradient1623"
       xlink:href="#linearGradient1621"
       inkscape:collect="always" />
    <linearGradient
       id="linearGradient1621"
       inkscape:collect="always">
      <stop
         id="stop1617"
         offset="0"
         style="stop-color:#27debf;stop-opacity:1" />
      <stop
         id="stop1619"
         offset="1"
         style="stop-color:#93efdf;stop-opacity:1" />
    </linearGradient>
  </defs>
  <sodipodi:namedview
     inkscape:window-maximized="0"
     inkscape:window-y="132"
     inkscape:window-x="244"
     inkscape:window-height="1198"
     inkscape:window-width="2110"
     units="px"
     showgrid="false"
     inkscape:document-rotation="0"
     inkscape:current-layer="layer1"
     inkscape:document-units="mm"
     inkscape:cy="527.00824"
     inkscape:cx="97.694093"
     inkscape:zoom="0.7"
     inkscape:pageshadow="2"
     inkscape:pageopacity="0.0"
     borderopacity="1.0"
     bordercolor="#666666"
     pagecolor="#ffffff"
     id="base" />
  <metadata
     id="metadata176">
    <rdf:RDF>
      <cc:Work
         rdf:about="">
        <dc:format>image/svg+xml</dc:format>
        <dc:type
           rdf:resource="http://purl.org/dc/dcmitype/StillImage" />
        <dc:title></dc:title>
      </cc:Work>
    </rdf:RDF>
  </metadata>
  <g
     id="layer1"
     inkscape:groupmode="layer"
     inkscape:label="Calque 1">
    <polygon
       transform="matrix(0.26458333,0,0,0.26458333,3.4571165,72.006656)"
       id="polygon953"
       fill="#ffb9b9"
       points="52.772,388.84 61.045,426.069 89.173,414.487 77.591,390.495 " />
    <polygon
       transform="matrix(0.26458333,0,0,0.26458333,3.4571165,72.006656)"
       style="fill:#000080"
       id="polygon955"
       fill="#2f2e41"
       points="247.189,264.744 214.096,290.391 148.739,368.985 156.185,380.567 235.606,326.792 289.381,397.113 340.674,371.467 305.1,321.001 " />
    <path
       style="stroke-width:0.264583"
       id="path959"
       fill="#ffb9b9"
       d="m 85.494891,166.78833 -1.970024,1.53224 -15.97908,-5.47228 -3.721155,-1.53224 -7.442311,1.53224 c 0,0 0,-6.12897 7.004529,-5.91007 l 7.223418,1.75113 8.536782,0.65667 z" />
    <polygon
       transform="matrix(0.26458333,0,0,0.26458333,3.4571165,72.006656)"
       style="fill:#000080"
       id="polygon961"
       fill="#2f2e41"
       points="345.638,431.033 324.128,431.033 224.024,393.804 77.591,420.278 73.454,388.84 207.478,330.102 324.956,368.985 363.839,419.451 " />
    <path
       style="stroke-width:0.264583"
       id="path963"
       fill="#ffb9b9"
       d="m 68.640244,144.02362 -3.283373,0.65667 -0.715494,-0.83475 a 4.4229576,4.4229576 0 0 1 -0.597855,-4.85642 v 0 l 9.193442,-12.03904 c 0,0 2.626699,-5.91007 6.785637,-3.50226 4.158938,2.4078 -3.502263,6.34785 -3.502263,6.34785 l -4.596723,7.22342 0.437782,3.72116 z" />
    <circle
       style="stroke-width:0.264583"
       id="circle965"
       fill="#ffb9b9"
       r="8.536768"
       cy="121.25887"
       cx="89.434929" />
    <path
       style="stroke-width:0.264583"
       id="path967"
       fill="#ffb9b9"
       d="m 85.604338,127.49731 3.940045,9.41233 9.412336,-3.94004 c 0,0 -3.064481,-7.44231 -3.064481,-7.66121 0,-0.21889 -10.2879,2.18892 -10.2879,2.18892 z" />
    <path
       style="fill:#800080;stroke-width:0.264583"
       id="path969"
       fill="#575a89"
       d="m 111.52328,155.34249 a 49.049173,49.049173 0 0 1 -2.40562,15.17137 l -0.63915,1.96565 -3.06449,14.00906 -3.28337,0.87556 -2.407813,-3.06448 -4.815611,-3.50225 -3.502263,-5.69118 -3.003185,-5.00386 -0.936863,-1.5629 -3.283374,-16.41686 -12.476816,-7.00452 -4.158938,-0.65668 0.875568,-2.4078 3.721155,-5.03451 3.721148,-0.43779 1.094457,-0.87557 0.875567,0.43778 3.502263,-1.97002 1.094457,0.43778 6.400387,0.59538 3.887523,-0.81427 5.590479,-3.001 2.289609,0.37431 7.88009,6.56675 a 49.006141,49.006141 0 0 1 3.04479,17.01005 z" />
    <path
       style="fill:#800080;stroke-width:0.264583"
       id="path971"
       fill="#2f2e41"
       d="m 19.435364,178.71453 c 0,0 1.96055,-3.32281 1.132457,-3.71075 -0.828093,-0.38793 -4.344874,-1.93443 -4.344874,-1.93443 l -5.157298,-1.70913 c 0,0 -7.4416695,-11.05985 -7.6050155,-1.44205 -0.163346,9.6178 5.418444,11.92972 5.418444,11.92972 0,0 4.9782825,10.71368 7.7982625,9.00526 2.819979,-1.70841 5.641792,-7.50776 5.641792,-7.50776 0,0 -5.085291,-2.7337 -2.883768,-4.63086 z" />
    <polygon
       transform="matrix(0.26458333,0,0,0.26458333,3.4571165,72.006656)"
       id="polygon973"
       opacity="0.1"
       points="307.582,315.21 310.064,315.21 335.711,268.054 399.413,307.764 367.975,328.447 321.051,370.755 317.51,364.848 " />
    <polygon
       transform="matrix(0.26458333,0,0,0.26458333,3.4571165,72.006656)"
       style="fill:#800080"
       id="polygon975"
       fill="#575a89"
       points="310.064,310.246 300.964,310.246 295.173,326.792 281.936,330.102 317.51,368.985 367.975,323.483 399.413,302.8 335.711,263.09 " />
    <path
       style="stroke-width:0.264583"
       sodipodi:nodetypes="ccccsssssssssccccccssscssssccc"
       id="path977"
       fill="#2f2e41"
       d="m 82.795072,114.91144 -0.924933,0.35587 c -0.599144,-0.40567 -0.895004,-0.85701 -0.477052,-1.44764 l -1.856224,-1.99048 c 0.630991,-0.84038 1.84653,1.13394 1.894319,0.13351 0.07292,-1.52642 1.922991,-2.19131 1.632201,-1.16112 -0.176485,0.62523 0.751271,1.02109 2.662648,0.42123 0.484489,-0.15205 -3.105558,-3.41486 2.290463,-0.70154 0.50323,0.25304 0.790551,-0.88807 1.396275,-1.08086 1.095899,-0.3488 2.398792,0.0679 1.986447,0.88076 -0.281104,0.55412 2.024642,-2.65597 2.438741,-0.9695 0.181197,0.73795 2.017684,1.4537 1.957673,0.32879 -0.07854,-1.47232 3.473717,-0.37783 2.170875,0.30944 -1.812711,0.95624 0.55985,0.77835 0.691729,1.31494 0.298262,-1.88459 1.954866,-0.70181 1.713366,1.29654 0.11638,-0.43613 0.91178,1.67215 1.19312,3.16243 0.13024,-0.4962 0.63103,0.30485 0.1923,1.07348 0.27798,-0.0406 0.40355,0.67062 0.18835,1.06686 0.30411,-0.14288 0.25286,0.70613 -0.0769,1.2735 0.1413,-0.0125 -1.5585,5.36794 -1.50153,3.63274 0.0131,-0.39788 -1.757888,1.56945 -0.800933,1.07601 1.561903,-0.80536 -0.465886,1.63876 -0.465886,1.63876 1.000339,1.66491 -1.460259,1.88247 -2.215576,3.09706 -0.453384,-2.08318 -0.963154,-4.2768 -2.425099,-5.82855 -0.248494,-0.26376 -0.520615,-0.504 -0.792295,-0.74381 l -1.469414,-1.29706 c -1.708652,-1.50824 -3.262963,-3.36971 -5.539181,-3.9334 -1.56428,-0.38739 -2.553367,-0.47485 -1.70088,-2.23753 -0.770202,0.32141 -1.489445,0.79938 -2.266553,1.0979 0.01042,-0.24629 0.119047,-0.5219 0.103929,-0.76833 z" />
    <circle
       style="stroke-width:0.264583"
       id="circle979"
       fill="#ffb9b9"
       r="1.5322418"
       cy="122.24387"
       cx="93.703316" />
    <path
       sodipodi:nodetypes="cccccccsc"
       style="fill:#666666;stroke-width:0.264583"
       id="path993"
       fill="#3f3d56"
       d="m 274.98092,73.425436 c -62.52669,-0.81877 -106.35264,0 -169.16997,0 -2.57159,0 -4.65627,2.08468 -4.65627,4.65627 V 172.3401 c -1e-5,2.5716 2.08468,4.65629 4.65627,4.6563 h 169.16997 c 2.5716,-1e-5 4.65627,-2.0847 4.65627,-4.65629 V 78.081706 c 0,-2.57159 -2.08467,-4.65627 -4.65627,-4.65627 z" />
    <rect
       style="fill:url(#linearGradient1623);fill-opacity:1;stroke-width:0.264583"
       id="rect995"
       fill="#6c63ff"
       height="93.639488"
       width="165.99728"
       y="81.654335"
       x="107.39732" />
    <polygon
       transform="matrix(0.26458333,0,0,0.26458333,3.4571165,72.006656)"
       id="polygon999"
       opacity="0.1"
       points="392.845,390.377 392.845,36.464 840.813,390.377 " />
    <rect
       style="fill:#ffffff;stroke-width:0.264583"
       id="rect1005"
       fill="#3f3d56"
       height="3.2400506"
       width="15.50596"
       y="132.15488"
       x="228.98575" />
    <rect
       style="fill:#ffffff;stroke-width:0.264583"
       id="rect1007"
       fill="#3f3d56"
       height="1.3885942"
       width="52.997982"
       y="106.92876"
       x="210.23973" />
    <rect
       style="fill:#ffffff;stroke-width:0.264583"
       id="rect1009"
       fill="#3f3d56"
       height="1.3885942"
       width="52.997982"
       y="111.32595"
       x="210.23973" />
    <rect
       style="fill:#ffffff;stroke-width:0.264583"
       id="rect1011"
       fill="#3f3d56"
       height="1.3885942"
       width="52.997982"
       y="115.72317"
       x="210.23973" />
    <rect
       style="fill:#ffffff;stroke-width:0.264583"
       id="rect1013"
       fill="#3f3d56"
       height="1.3885942"
       width="52.997982"
       y="120.12038"
       x="210.23973" />
    <rect
       style="fill:#ffffff;stroke-width:0.264583"
       id="rect1015"
       fill="#3f3d56"
       height="1.3885942"
       width="52.997982"
       y="124.51759"
       x="210.23973" />
    <path
       style="fill:#666666;stroke-width:0.264583"
       id="path1021"
       fill="#3f3d56"
       d="m 284.29804,173.59132 h -16.20025 v -1.16722 a 0.2314231,0.2314231 0 0 0 -0.23142,-0.23144 h -5.55435 a 0.23142575,0.23142575 0 0 0 -0.23143,0.23144 v 1.16722 h -3.4715 v -1.16722 a 0.23142575,0.23142575 0 0 0 -0.23143,-0.23144 h -5.55437 a 0.23142575,0.23142575 0 0 0 -0.23143,0.23144 v 1.16722 h -3.47149 v -1.16722 a 0.23142575,0.23142575 0 0 0 -0.23143,-0.23144 h -5.55437 a 0.23142575,0.23142575 0 0 0 -0.23143,0.23144 v 1.16722 h -3.47149 v -1.16722 a 0.23142575,0.23142575 0 0 0 -0.23143,-0.23144 h -5.55438 a 0.2314231,0.2314231 0 0 0 -0.23143,0.23144 v 1.16722 h -3.47148 v -1.16722 a 0.23142575,0.23142575 0 0 0 -0.23143,-0.23144 h -5.55437 a 0.23142575,0.23142575 0 0 0 -0.23144,0.23144 v 1.16722 h -3.47148 v -1.16722 a 0.23142575,0.23142575 0 0 0 -0.23143,-0.23144 h -5.55438 a 0.23142575,0.23142575 0 0 0 -0.23143,0.23144 v 1.16722 h -3.47148 v -1.16722 a 0.23142575,0.23142575 0 0 0 -0.23143,-0.23144 H 167.4248 a 0.23142575,0.23142575 0 0 0 -0.23144,0.23144 v 1.16722 h -3.47148 v -1.16722 a 0.23142575,0.23142575 0 0 0 -0.23143,-0.23144 h -5.55436 a 0.23142575,0.23142575 0 0 0 -0.23143,0.23144 v 1.16722 h -3.4715 v -1.16722 a 0.2314231,0.2314231 0 0 0 -0.23143,-0.23144 h -5.55438 a 0.23142575,0.23142575 0 0 0 -0.23143,0.23144 v 1.16722 h -3.47148 v -1.16722 a 0.23142575,0.23142575 0 0 0 -0.23143,-0.23144 h -5.55438 a 0.23142575,0.23142575 0 0 0 -0.23143,0.23144 v 1.16722 h -3.47148 v -1.16722 a 0.23142575,0.23142575 0 0 0 -0.23144,-0.23144 h -5.55437 a 0.23142575,0.23142575 0 0 0 -0.23143,0.23144 v 1.16722 h -3.47149 v -1.16722 a 0.23142575,0.23142575 0 0 0 -0.23143,-0.23144 h -5.55437 a 0.2314231,0.2314231 0 0 0 -0.23143,0.23144 v 1.16722 h -3.47149 v -1.16722 a 0.23142575,0.23142575 0 0 0 -0.23143,-0.23144 h -5.55437 a 0.23142575,0.23142575 0 0 0 -0.23144,0.23144 v 1.16722 H 99.615147 a 5.5543767,5.5543767 0 0 0 -5.554371,5.55437 v 2.51156 a 5.5543741,5.5543741 0 0 0 5.554371,5.55436 H 284.29804 a 5.5543767,5.5543767 0 0 0 5.55437,-5.55436 v -2.51156 a 5.5543794,5.5543794 0 0 0 -5.55437,-5.55437 z" />
    <g
       inkscape:label="vscode"
       transform="matrix(0.26458333,0,0,0.26458333,41.189562,9.7710811)"
       id="vscode">
      <g
         inkscape:label="vscode"
         id="g5122">
        <g
           transform="matrix(1.4583333,0,0,1.4583333,170.46469,-128.5814)"
           id="g4835">
          <g
             id="g4830"
             transform="translate(106.25,167.96875)">
            <path
               id="B_1_"
               fill="#68217a"
               d="M 30.3,11.1 19.2,22.2 11.8,16.7 9,17.6 v 13.9 l 2.8,1.8 7.4,-5.5 11,11.1 6.6,-2.8 V 13.9 Z M 11.8,28.7 v -7.4 l 4.6,3.7 z m 18.5,1.8 -7.4,-5.5 7.4,-5.5 z" />
            <path
               id="path4819"
               fill="#68217a"
               d="M 25,1 C 11.7,1 1,11.7 1,25 1,38.3 11.7,49 25,49 38.3,49 49,38.3 49,25 49,11.7 38.3,1 25,1 Z m 0,43 C 14.5,44 6,35.5 6,25 6,14.5 14.5,6 25,6 35.5,6 44,14.5 44,25 44,35.5 35.5,44 25,44 Z" />
          </g>
        </g>
      </g>
    </g>
    <g
       transform="translate(4.5357143,0.37797619)"
       id="symfony">
      <g
         id="g5154"
         transform="matrix(0.26458333,0,0,0.26458333,-6.375843,-37.548529)"
         inkscape:label="sf">
        <g
           transform="matrix(2.9166667,0,0,2.9166667,-412.69045,12.423913)"
           id="g4851">
          <g
             id="g4854">
            <path
               d="m 213.5625,127.34375 c 0,6.628 -5.372,12 -12,12 -6.628,0 -12,-5.372 -12,-12 0,-6.628 5.372,-12 12,-12 6.628,0 12,5.372 12,12 z m -6.753,-7.561 c -1.22,0.042 -2.283,0.715 -3.075,1.644 -0.878,1.02 -1.461,2.229 -1.881,3.461 -0.753,-0.614 -1.332,-1.414 -2.539,-1.761 -0.966,-0.297 -2.015,-0.105 -2.813,0.514 -0.41,0.319 -0.71,0.757 -0.861,1.254 -0.36,1.176 0.381,2.225 0.719,2.6 l 0.737,0.79 c 0.15,0.154 0.519,0.56 0.339,1.138 -0.193,0.631 -0.951,1.037 -1.732,0.799 -0.348,-0.106 -0.848,-0.366 -0.734,-0.73 0.045,-0.15 0.152,-0.263 0.21,-0.391 0.052,-0.11 0.077,-0.194 0.095,-0.242 0.141,-0.465 -0.053,-1.07 -0.551,-1.223 -0.465,-0.143 -0.939,-0.03 -1.125,0.566 -0.209,0.68 0.117,1.913 1.86,2.449 2.04,0.628 3.765,-0.484 4.009,-1.932 0.153,-0.907 -0.255,-1.582 -1.006,-2.447 l -0.612,-0.677 c -0.371,-0.37 -0.497,-1.002 -0.114,-1.485 0.324,-0.409 0.785,-0.584 1.539,-0.379 1.103,0.3 1.594,1.063 2.412,1.68 -0.338,1.11 -0.56,2.223 -0.759,3.222 l -0.123,0.746 c -0.585,3.07 -1.033,4.757 -2.194,5.726 -0.234,0.166 -0.57,0.416 -1.073,0.434 -0.266,0.005 -0.352,-0.176 -0.355,-0.257 -0.006,-0.184 0.15,-0.271 0.255,-0.353 0.154,-0.083 0.39,-0.224 0.372,-0.674 -0.016,-0.532 -0.456,-0.994 -1.094,-0.973 -0.477,0.017 -1.203,0.465 -1.176,1.286 0.028,0.85 0.819,1.485 2.012,1.444 0.638,-0.021 2.062,-0.281 3.464,-1.949 1.633,-1.911 2.09,-4.101 2.434,-5.706 l 0.383,-2.116 c 0.213,0.024 0.441,0.042 0.69,0.048 2.032,0.044 3.049,-1.01 3.064,-1.776 0.01,-0.464 -0.304,-0.921 -0.744,-0.91 -0.386,0.009 -0.718,0.278 -0.806,0.654 -0.094,0.428 0.646,0.813 0.068,1.189 -0.41,0.266 -1.146,0.452 -2.184,0.3 l 0.188,-1.042 c 0.386,-1.976 0.859,-4.407 2.661,-4.467 0.132,-0.007 0.612,0.006 0.623,0.323 0.003,0.105 -0.022,0.134 -0.147,0.375 -0.115,0.155 -0.174,0.345 -0.168,0.537 0.017,0.504 0.4,0.836 0.957,0.816 0.743,-0.023 0.955,-0.748 0.945,-1.119 -0.032,-0.874 -0.952,-1.424 -2.17,-1.386 z"
               id="path4839" />
          </g>
        </g>
      </g>
    </g>
    <g
       inkscape:label="js"
       id="js">
      <g
         id="g5149"
         transform="matrix(0.26458333,0,0,0.26458333,14.9826,-43.303821)"
         inkscape:label="js">
        <g
           transform="matrix(0.7,0,0,0.7,76.313591,216.61104)"
           id="g4918">
          <g
             id="g4907">
            <g
               id="g4905">
              <circle
                 cx="64"
                 cy="64"
                 r="50"
                 style="fill:#f0db4f"
                 id="circle4903" />
            </g>
          </g>
          <g
             id="Layer_1_1_">
            <g
               id="g4915">
              <g
                 id="g4913">
                <path
                   d="m 48.4,44.6 h 8.7 V 69.1 C 57.1,80.1 51.8,84 43.4,84 41.3,84 38.7,83.7 37,83.1 L 38,76 c 1.2,0.4 2.8,0.7 4.5,0.7 3.7,0 6,-1.7 6,-7.6 z"
                   style="fill:#323330"
                   id="path4909" />
                <path
                   d="m 64.8,74.4 c 2.3,1.2 6,2.4 9.7,2.4 4,0 6.1,-1.7 6.1,-4.3 0,-2.4 -1.8,-3.8 -6.5,-5.4 C 67.7,64.8 63.4,61.2 63.4,55.5 63.4,49 69,44 78.1,44 c 4.4,0 7.6,0.9 9.9,2 l -2,7 c -1.5,-0.7 -4.3,-1.8 -8,-1.8 -3.8,0 -5.6,1.8 -5.6,3.7 0,2.5 2.1,3.6 7.2,5.5 6.8,2.5 10,6.1 10,11.6 0,6.5 -4.9,12 -15.6,12 -4.4,0 -8.8,-1.2 -11,-2.4 z"
                   style="fill:#323330"
                   id="path4911" />
              </g>
            </g>
          </g>
        </g>
      </g>
    </g>
    <g
       inkscape:label="html"
       transform="matrix(0.26458333,0,0,0.26458333,58.680759,-3.9198022)"
       id="html">
      <path
         id="path5029"
         fill="#1e1e1e"
         d="m 558.43249,170.28714 c -19.35286,0 -34.99985,15.64706 -34.99985,35 0,19.35294 15.64699,35 34.99985,35 19.35284,0 34.99983,-15.64706 34.99983,-35 0.0823,-19.27059 -15.64699,-35 -34.99983,-35 z m -21.49404,35.49412 c 1.81177,1.23529 3.95293,2.55294 6.42351,4.03529 2.55293,1.56471 4.52939,2.71765 6.09409,3.45882 0.32941,0.16471 0.49412,0.41177 0.41177,0.90589 -0.0823,0.41176 -0.24706,0.82353 -0.57648,1.31765 -0.32941,0.41177 -0.65881,0.74117 -1.07058,0.90588 -0.49412,0.24706 -0.90587,0.24706 -1.15293,0 -1.15294,-0.90588 -3.45881,-2.47059 -6.99997,-4.85882 -3.70587,-2.4706 -6.34115,-4.11766 -7.9882,-5.02354 -0.57647,-0.32941 -0.90587,-0.74117 -0.90587,-1.15294 0,-0.41176 0.24705,-0.82352 0.90587,-1.15294 2.79998,-1.72941 5.43527,-3.37647 7.9882,-5.02353 3.70586,-2.38823 6.09409,-3.95294 6.99997,-4.69411 0.32941,-0.32942 0.74116,-0.32942 1.15293,-0.16471 0.41177,0.16471 0.74117,0.49411 1.07058,0.90588 0.32942,0.41177 0.49412,0.82352 0.57648,1.31765 0.0823,0.49412 -0.0823,0.82353 -0.41177,0.98824 -1.72941,0.90588 -3.70587,1.97646 -6.09409,3.37646 -2.63529,1.56471 -4.77645,2.88236 -6.42351,3.95294 -0.24705,0.16471 -0.41175,0.32942 -0.41175,0.49412 0,0.16471 0.1647,0.16471 0.41175,0.41177 z m 48.01155,0.74117 c -1.64705,0.90588 -4.36468,2.55294 -7.98819,5.02354 -3.54116,2.38823 -5.84703,3.95294 -6.99997,4.85882 -0.32941,0.24706 -0.74118,0.24706 -1.23529,0 -0.41176,-0.16471 -0.74118,-0.49411 -1.15293,-0.90588 -0.32942,-0.41177 -0.49412,-0.90589 -0.57648,-1.31765 -0.0823,-0.41177 0.0823,-0.74118 0.49412,-0.90589 1.48234,-0.82352 3.54116,-1.97646 6.01174,-3.45882 2.47058,-1.48235 4.61174,-2.88235 6.4235,-4.03529 0.24706,-0.16471 0.41176,-0.32941 0.41176,-0.49412 0,-0.16471 -0.1647,-0.32941 -0.41176,-0.49412 -1.64705,-1.07059 -3.78821,-2.38823 -6.4235,-3.95294 -2.30587,-1.31765 -4.28234,-2.47059 -6.01174,-3.37648 -0.32941,-0.16469 -0.49412,-0.49411 -0.49412,-0.98823 0.0823,-0.41177 0.24706,-0.82352 0.57648,-1.31764 0.3294,-0.41176 0.74117,-0.74118 1.15293,-0.90588 0.41176,-0.16471 0.82352,-0.16471 1.23529,0.1647 0.90588,0.74118 3.21175,2.30588 6.99997,4.69413 2.71764,1.7294 5.43526,3.45881 7.98819,5.02352 0.57648,0.3294 0.90588,0.74117 0.90588,1.15294 0,0.41177 -0.24706,0.90588 -0.90588,1.23529 z"
         style="stroke-width:0.823528" />
    </g>
    <g
       inkscape:label="php"
       transform="matrix(0.26458333,0,0,0.26458333,-17.257079,-52.630367)"
       id="php">
      <g
         id="g5059"
         transform="matrix(0.13671875,0,0,0.13671875,348.50515,252.66042)">
        <path
           d="M 512,256 A 256,256 0 0 1 256,512 256,256 0 0 1 0,256 256,256 0 0 1 256,0 256,256 0 0 1 512,256"
           style="fill:#8892be"
           id="ellipse-9" />
        <g
           id="logo-6">
          <path
             id="path5040"
             fill="#ffffff"
             d="m 160.1,230.7 c 10,0 16.6,1.8 20,5.5 3.3,3.7 4.1,10 2.4,19 -1.8,9.3 -5.3,16 -10.5,20 -5.2,4 -13.1,6 -23.7,6 h -16 l 9.8,-50.5 z M 96,332.4 h 26.3 l 6.2,-32.1 H 151 c 9.9,0 18.1,-1 24.5,-3.1 6.4,-2.1 12.3,-5.6 17.5,-10.5 4.4,-4.1 8,-8.5 10.7,-13.4 2.7,-4.9 4.7,-10.3 5.8,-16.2 2.8,-14.3 0.7,-25.5 -6.3,-33.4 -7,-7.9 -18.1,-12 -33.3,-12 h -50.6 z" />
          <path
             id="path5042"
             fill="#ffffff"
             d="M 228.9,179.6 H 255 l -6.2,32.1 H 272 c 14.6,0 24.7,2.6 30.3,7.7 5.6,5.1 7.2,13.4 5,24.8 l -10.9,56.2 H 269.9 L 280.3,247 c 1.2,-6.1 0.7,-10.2 -1.3,-12.4 -2.1,-2.2 -6.4,-3.3 -13.1,-3.3 H 245 l -13.4,69.1 h -26.1 z" />
          <path
             id="path5044"
             fill="#ffffff"
             d="m 365.3,230.7 c 10,0 16.6,1.8 20,5.5 3.3,3.7 4.1,10 2.4,19 -1.8,9.3 -5.3,16 -10.5,20 -5.2,4 -13.1,6 -23.7,6 h -16 l 9.8,-50.5 z m -64.1,101.7 h 26.3 l 6.2,-32.1 h 22.5 c 9.9,0 18.1,-1 24.5,-3.1 6.4,-2.1 12.2,-5.6 17.5,-10.5 4.4,-4.1 8,-8.5 10.7,-13.4 2.7,-4.9 4.7,-10.3 5.8,-16.2 2.8,-14.3 0.7,-25.5 -6.3,-33.4 -7,-8 -18.1,-12 -33.3,-12 h -50.6 z" />
        </g>
      </g>
    </g>
    <g
       inkscape:label="idee"
       style="opacity:0.620915"
       transform="matrix(2.2134236,0,0,2.2134236,66.737567,-2225.8072)"
       id="g5075">
      <path
         d="m 24,14 a 2,2 0 1 1 -4,0 2,2 0 1 1 4,0 z"
         fill="#7f8c8d"
         transform="matrix(1,0,0,1.25,-10,1031.4)"
         id="path5061" />
      <path
         d="m 12,1030.4 c -3.866,0 -7,3.2 -7,7.2 0,3.1 3.125,5.9 4,7.8 0.875,1.8 0,5 0,5 l 3,-0.5 3,0.5 c 0,0 -0.875,-3.2 0,-5 0.875,-1.9 4,-4.7 4,-7.8 0,-4 -3.134,-7.2 -7,-7.2 z"
         fill="#f39c12"
         id="path5063" />
      <path
         d="m 12,1030.4 c 3.866,0 7,3.2 7,7.2 0,3.1 -3.125,5.9 -4,7.8 -0.875,1.8 0,5 0,5 l -3,-0.5 z"
         fill="#f1c40f"
         id="path5065" />
      <path
         d="m 9,1036.4 -1,1 4,12 4,-12 -1,-1 -1,1 -1,-1 -1,1 -1,-1 -1,1 z m 0,1 1,1 0.5,-0.5 0.5,-0.5 0.5,0.5 0.5,0.5 0.5,-0.5 0.5,-0.5 0.5,0.5 0.5,0.5 1,-1 0.438,0.4 -3.438,10.3 -3.4375,-10.3 z"
         fill="#e67e22"
         id="path5067" />
      <rect
         fill="#bdc3c7"
         height="5"
         width="6"
         x="9"
         y="1045.4"
         id="rect5069" />
      <path
         d="m 9,1045.4 v 5 h 3 v -1 h 3 v -1 h -3 v -1 h 3 v -1 h -3 v -1 z"
         fill="#95a5a6"
         id="path5071" />
      <path
         d="m 9,1046.4 v 1 h 3 v -1 z m 0,2 v 1 h 3 v -1 z"
         fill="#7f8c8d"
         id="path5073" />
    </g>
    <g
       inkscape:label="node"
       transform="matrix(0.0361735,0,0,0.0361735,162.83215,25.626784)"
       id="node">
      <circle
         cx="256"
         cy="256"
         fill="#6cc24a"
         id="ellipse"
         r="256" />
      <g
         id="logo">
        <path
           d="m 135.2,259.1 c 0,-1.1 -0.6,-2 -1.5,-2.5 l -24.2,-13.9 c -0.4,-0.2 -0.9,-0.4 -1.3,-0.4 0,0 -0.2,0 -0.3,0 -0.5,0 -0.9,0.1 -1.3,0.4 l -24.2,13.9 c -0.9,0.5 -1.5,1.5 -1.5,2.5 l 0.1,37.4 c 0,0.5 0.3,1 0.7,1.3 0.4,0.3 1,0.3 1.4,0 l 14.4,-8.2 c 0.9,-0.5 1.5,-1.5 1.5,-2.5 v -17.5 c 0,-1 0.6,-2 1.5,-2.5 l 6.1,-3.5 c 0.5,-0.3 1,-0.4 1.5,-0.4 0.5,0 1,0.1 1.5,0.4 l 6.1,3.5 c 0.9,0.5 1.5,1.5 1.5,2.5 V 287 c 0,1 0.6,2 1.5,2.5 l 14.4,8.2 c 0.4,0.3 1,0.3 1.5,0 0.4,-0.3 0.7,-0.7 0.7,-1.3 z"
           fill="#ffffff"
           id="path330" />
        <path
           d="m 264.2,207.6 c -0.5,-0.3 -1,-0.2 -1.5,0 -0.4,0.3 -0.7,0.7 -0.7,1.3 V 246 c 0,0.4 -0.2,0.7 -0.5,0.9 -0.3,0.2 -0.7,0.2 -1,0 l -6.1,-3.5 c -0.9,-0.5 -2,-0.5 -2.9,0 l -24.2,14 c -0.9,0.5 -1.5,1.5 -1.5,2.5 v 27.9 c 0,1 0.6,2 1.5,2.5 l 24.2,14 c 0.9,0.5 2,0.5 2.9,0 l 24.2,-14 c 0.9,-0.5 1.5,-1.5 1.5,-2.5 v -69.6 c 0,-1.1 -0.6,-2 -1.5,-2.5 z m -2.2,71 c 0,0.3 -0.1,0.5 -0.4,0.6 l -8.3,4.8 c -0.2,0.1 -0.5,0.1 -0.7,0 l -8.3,-4.8 c -0.2,-0.1 -0.4,-0.4 -0.4,-0.6 V 269 c 0,-0.3 0.1,-0.5 0.4,-0.6 l 8.3,-4.8 c 0.2,-0.1 0.5,-0.1 0.7,0 l 8.3,4.8 c 0.2,0.1 0.4,0.4 0.4,0.6 z"
           fill="#ffffff"
           id="path332" />
        <path
           d="m 350.7,268.7 c 0.9,-0.5 1.5,-1.5 1.5,-2.5 v -6.8 c 0,-1 -0.6,-2 -1.5,-2.5 l -24,-13.9 c -0.9,-0.5 -2,-0.5 -2.9,0 l -24.2,14 c -0.9,0.5 -1.5,1.5 -1.5,2.5 v 27.9 c 0,1 0.6,2 1.5,2.5 l 24,13.7 c 0.9,0.5 2,0.5 2.9,0 l 14.5,-8.1 c 0.5,-0.3 0.7,-0.7 0.8,-1.3 0,-0.5 -0.3,-1 -0.7,-1.3 l -24.3,-14 c -0.5,-0.3 -0.7,-0.7 -0.7,-1.3 V 269 c 0,-0.5 0.3,-1 0.7,-1.3 l 7.6,-4.4 c 0.4,-0.3 1,-0.3 1.5,0 l 7.6,4.4 c 0.5,0.3 0.7,0.7 0.7,1.3 v 6.9 c 0,0.5 0.3,1 0.7,1.3 0.5,0.3 1,0.3 1.5,0 z"
           fill="#ffffff"
           id="path334" />
        <path
           d="m 179.1,242.8 c 0.9,-0.5 2,-0.5 2.9,0 l 24.2,13.9 c 0.9,0.5 1.5,1.5 1.5,2.5 v 27.9 c 0,1 -0.6,2 -1.5,2.5 l -24.2,14 c -0.9,0.5 -2,0.5 -2.9,0 l -24.2,-14 c -0.9,-0.5 -1.5,-1.5 -1.5,-2.5 v -27.9 c 0,-1 0.6,-2 1.5,-2.5 z"
           fill="#ffffff"
           id="path336" />
        <path
           d="m 397.6,304.1 c -0.8,0 -1.7,-0.2 -2.4,-0.6 l -7.6,-4.5 c -1.1,-0.6 -0.6,-0.9 -0.2,-1 1.5,-0.5 1.8,-0.6 3.4,-1.6 0.2,-0.1 0.4,-0.1 0.6,0 l 5.8,3.5 c 0.2,0.1 0.5,0.1 0.7,0 l 22.8,-13.2 c 0.2,-0.1 0.3,-0.4 0.3,-0.6 v -26.3 c 0,-0.3 -0.1,-0.5 -0.4,-0.6 L 398,246.1 c -0.2,-0.1 -0.5,-0.1 -0.7,0 l -22.8,13.1 c -0.2,0.1 -0.4,0.4 -0.4,0.6 v 26.3 c 0,0.3 0.1,0.5 0.4,0.6 l 6.2,3.6 c 3.4,1.7 5.5,-0.3 5.5,-2.3 v -26 c 0,-0.4 0.3,-0.7 0.7,-0.7 h 2.9 c 0.4,0 0.7,0.3 0.7,0.7 v 26 c 0,4.5 -2.5,7.1 -6.7,7.1 -1.3,0 -2.4,0 -5.3,-1.4 l -6,-3.4 c -1.5,-0.9 -2.4,-2.4 -2.4,-4.2 v -26.3 c 0,-1.7 0.9,-3.3 2.4,-4.2 l 22.8,-13.2 c 1.4,-0.8 3.4,-0.8 4.8,0 l 22.8,13.2 c 1.5,0.9 2.4,2.4 2.4,4.2 v 26.3 c 0,1.7 -0.9,3.3 -2.4,4.2 L 400,303.5 c -0.7,0.4 -1.5,0.6 -2.4,0.6 z"
           fill="#ffffff"
           id="path338" />
        <path
           d="m 404.7,286 c -10,0 -12.1,-4.6 -12.1,-8.4 0,-0.4 0.3,-0.7 0.7,-0.7 h 2.9 c 0.3,0 0.6,0.2 0.7,0.6 0.4,3 1.8,4.5 7.8,4.5 4.8,0 6.8,-1.1 6.8,-3.6 0,-1.5 -0.6,-2.6 -8,-3.3 -6.2,-0.6 -10.1,-2 -10.1,-7 0,-4.6 3.9,-7.3 10.4,-7.3 7.3,0 10.9,2.5 11.4,8 0,0.2 0,0.4 -0.2,0.5 -0.1,0.1 -0.3,0.2 -0.5,0.2 h -3 c -0.3,0 -0.6,-0.2 -0.6,-0.5 -0.7,-3.2 -2.4,-4.2 -7.1,-4.2 -5.2,0 -5.9,1.8 -5.9,3.2 0,1.7 0.7,2.1 7.8,3.1 7,0.9 10.3,2.2 10.3,7.2 0,4.8 -4.1,7.7 -11.3,7.7 z"
           fill="#ffffff"
           id="path340" />
        <path
           d="m 324.9,267.4 c 0.2,-0.1 0.4,-0.1 0.6,0 l 4.6,2.7 c 0.2,0.1 0.3,0.3 0.3,0.5 v 5.4 c 0,0.2 -0.1,0.4 -0.3,0.5 l -4.6,2.7 c -0.2,0.1 -0.4,0.1 -0.6,0 l -4.6,-2.7 c -0.2,-0.1 -0.3,-0.3 -0.3,-0.5 v -5.4 c 0,-0.2 0.1,-0.4 0.3,-0.5 z"
           fill="#ffffff"
           id="path342" />
        <g
           id="g346">
          <path
             d="m 441,249.6 c 0,2.4 -2,4.4 -4.4,4.4 -2.4,0 -4.4,-2 -4.4,-4.4 0,-2.5 2,-4.4 4.4,-4.4 2.4,0 4.4,2 4.4,4.4 z m -8.1,0 c 0,2 1.7,3.7 3.7,3.7 2,0 3.7,-1.7 3.7,-3.7 0,-2 -1.7,-3.7 -3.7,-3.7 -2,0.1 -3.7,1.7 -3.7,3.7 z m 2.1,-2.4 h 1.7 c 0.6,0 1.7,0 1.7,1.3 0,0.9 -0.6,1.1 -0.9,1.2 0.7,0 0.7,0.5 0.8,1.1 0,0.4 0.1,1.1 0.3,1.3 h -1 c 0,-0.2 -0.2,-1.5 -0.2,-1.6 -0.1,-0.3 -0.2,-0.4 -0.5,-0.4 H 436 v 2 h -1 z m 0.9,2.1 h 0.8 c 0.6,0 0.7,-0.4 0.7,-0.7 0,-0.7 -0.5,-0.7 -0.7,-0.7 h -0.8 v 1.4 c 0,0 0,0 0,0 z"
             fill="#ffffff"
             id="path344" />
        </g>
      </g>
    </g>
    <g
       inkscape:label="css"
       transform="matrix(0.18520833,0,0,0.18520833,117.22554,6.1005365)"
       id="css">
      <g
         id="g379">
        <g
           id="g377">
          <g
             id="g375">
            <g
               id="g373">
              <path
                 class="st0"
                 d="M 114,64 A 50,50 0 0 1 64,114 50,50 0 0 1 14,64 50,50 0 0 1 64,14 50,50 0 0 1 114,64"
                 style="fill:#cc6699"
                 id="circle371" />
            </g>
          </g>
        </g>
      </g>
      <path
         class="st1"
         d="M 90.9,41.8 C 90.3,39.4 88.6,37.4 86,36 80.9,33.3 72.7,33.2 65.2,35.9 c -4.5,1.6 -13,5.2 -19.4,11.1 -6.4,6 -7.4,11.3 -6.9,13.4 1.1,5.8 7.2,9.9 12,13.3 1.3,0.9 2.5,1.7 3.4,2.5 -2.7,1.4 -10,5.5 -12,9.8 -1.5,3.4 -0.8,5.9 -0.2,7 0.6,1.3 1.6,2.3 2.6,2.6 1,0.3 2.1,0.4 3.2,0.4 4.3,0 8.5,-2.3 11.1,-6.2 2.6,-3.9 2.8,-9.1 1.6,-12.3 1.7,-0.4 3.5,-0.4 5.5,-0.2 3.9,0.5 5.8,2 6.7,3.2 1,1.3 1.2,2.6 1.1,3.4 -0.2,1.5 -1.4,2.4 -2,2.8 -0.5,0.3 -0.9,0.6 -0.8,1.2 0.2,0.8 1,0.7 1.3,0.7 0.9,-0.2 4.1,-1.8 4.3,-5.4 C 76.8,81 75.9,78.8 74.2,77 72,74.7 68.7,73.5 64.9,73.6 c -2.8,0 -4.7,0.3 -6.2,0.8 0,0 -0.1,-0.1 -0.1,-0.1 -1.4,-1.5 -3.3,-2.9 -5,-4.3 -4,-3 -7.7,-5.9 -7.5,-10.2 0.3,-5.4 5.6,-10.7 15.9,-15.8 9.1,-4.5 16.5,-4.7 20.4,-3.3 1.6,0.6 2.7,1.4 3.1,2.3 0.8,1.7 0.5,3.9 -0.9,6.3 -2.3,4 -8.1,9 -17,10 -5.4,0.6 -7.7,-1.8 -7.8,-1.9 -0.6,-0.7 -1,-1.1 -1.7,-0.7 -0.8,0.4 -0.4,1.5 -0.2,1.9 0.4,1.1 2.1,3 5,4 2.3,0.8 8.2,1.3 15.5,-1.5 8.4,-3.4 14.2,-12.4 12.5,-19.3 z M 56.4,84.4 c -0.1,0.2 -0.1,0.4 -0.2,0.6 -0.1,0.2 -0.2,0.4 -0.2,0.6 -0.4,0.9 -1,1.8 -1.8,2.6 -2.3,2.5 -5.4,3.2 -6.4,2.6 -0.3,-0.2 -0.4,-0.5 -0.5,-0.9 -0.2,-1.2 0.5,-3.6 2.6,-5.7 2.5,-2.6 6,-4.5 6.8,-4.9 0.3,1.8 0.2,3.5 -0.3,5.1 z"
         id="path381" />
    </g>
  </g>
  <style
     type="text/css"
     id="style369">
	.st0{fill:#CC6699;}
	.st1{fill:#FFFFFF;}
</style>
</svg>
