<?xml version="1.0" encoding="UTF-8" standalone="no"?>
<svg
   xmlns:dc="http://purl.org/dc/elements/1.1/"
   xmlns:cc="http://creativecommons.org/ns#"
   xmlns:rdf="http://www.w3.org/1999/02/22-rdf-syntax-ns#"
   xmlns:svg="http://www.w3.org/2000/svg"
   xmlns="http://www.w3.org/2000/svg"
   xmlns:sodipodi="http://sodipodi.sourceforge.net/DTD/sodipodi-0.dtd"
   xmlns:inkscape="http://www.inkscape.org/namespaces/inkscape"
   id="e189b3b9-b88e-4ad6-86fc-a3cf637fca9f"
   data-name="Layer 1"
   width="1100.439"
   height="800.88123"
   viewBox="0 0 1100.439 800.88129"
   version="1.1"
   sodipodi:docname="fabien2.svg"
   inkscape:version="1.0 (4035a4fb49, 2020-05-01)">
  <metadata
     id="metadata1028">
    <rdf:RDF>
      <cc:Work
         rdf:about="">
        <dc:format>image/svg+xml</dc:format>
        <dc:type
           rdf:resource="http://purl.org/dc/dcmitype/StillImage" />
        <dc:title>code_thinking</dc:title>
      </cc:Work>
    </rdf:RDF>
  </metadata>
  <defs
     id="defs1026" />
  <sodipodi:namedview
     pagecolor="#ffffff"
     bordercolor="#666666"
     borderopacity="1"
     objecttolerance="10"
     gridtolerance="10"
     guidetolerance="10"
     inkscape:pageopacity="0"
     inkscape:pageshadow="2"
     inkscape:window-width="2209"
     inkscape:window-height="1291"
     id="namedview1024"
     showgrid="false"
     inkscape:zoom="0.90509668"
     inkscape:cx="632.75109"
     inkscape:cy="508.6255"
     inkscape:window-x="1160"
     inkscape:window-y="54"
     inkscape:window-maximized="0"
     inkscape:current-layer="e189b3b9-b88e-4ad6-86fc-a3cf637fca9f" />
  <title
     id="title951">code_thinking</title>
  <style
     id="style4949"
     type="text/css">
	.st0{fill:#CC6699;}
	.st1{fill:#FFFFFF;}
</style>
  <g
     id="g5108"
     transform="translate(-98.332037,-6.6291259)"
     sodipodi:insensitive="true">
    <g
       transform="matrix(0.13671875,0,0,0.13671875,586.60637,346.49453)"
       id="g5027">
      <circle
         cx="256"
         cy="256"
         fill="#6cc24a"
         id="ellipse"
         r="256" />
      <g
         id="logo">
        <path
           d="m 135.2,259.1 c 0,-1.1 -0.6,-2 -1.5,-2.5 l -24.2,-13.9 c -0.4,-0.2 -0.9,-0.4 -1.3,-0.4 0,0 -0.2,0 -0.3,0 -0.5,0 -0.9,0.1 -1.3,0.4 l -24.2,13.9 c -0.9,0.5 -1.5,1.5 -1.5,2.5 l 0.1,37.4 c 0,0.5 0.3,1 0.7,1.3 0.4,0.3 1,0.3 1.4,0 l 14.4,-8.2 c 0.9,-0.5 1.5,-1.5 1.5,-2.5 v -17.5 c 0,-1 0.6,-2 1.5,-2.5 l 6.1,-3.5 c 0.5,-0.3 1,-0.4 1.5,-0.4 0.5,0 1,0.1 1.5,0.4 l 6.1,3.5 c 0.9,0.5 1.5,1.5 1.5,2.5 V 287 c 0,1 0.6,2 1.5,2.5 l 14.4,8.2 c 0.4,0.3 1,0.3 1.5,0 0.4,-0.3 0.7,-0.7 0.7,-1.3 z"
           fill="#ffffff"
           id="path4990" />
        <path
           d="m 264.2,207.6 c -0.5,-0.3 -1,-0.2 -1.5,0 -0.4,0.3 -0.7,0.7 -0.7,1.3 V 246 c 0,0.4 -0.2,0.7 -0.5,0.9 -0.3,0.2 -0.7,0.2 -1,0 l -6.1,-3.5 c -0.9,-0.5 -2,-0.5 -2.9,0 l -24.2,14 c -0.9,0.5 -1.5,1.5 -1.5,2.5 v 27.9 c 0,1 0.6,2 1.5,2.5 l 24.2,14 c 0.9,0.5 2,0.5 2.9,0 l 24.2,-14 c 0.9,-0.5 1.5,-1.5 1.5,-2.5 v -69.6 c 0,-1.1 -0.6,-2 -1.5,-2.5 z m -2.2,71 c 0,0.3 -0.1,0.5 -0.4,0.6 l -8.3,4.8 c -0.2,0.1 -0.5,0.1 -0.7,0 l -8.3,-4.8 c -0.2,-0.1 -0.4,-0.4 -0.4,-0.6 V 269 c 0,-0.3 0.1,-0.5 0.4,-0.6 l 8.3,-4.8 c 0.2,-0.1 0.5,-0.1 0.7,0 l 8.3,4.8 c 0.2,0.1 0.4,0.4 0.4,0.6 z"
           fill="#ffffff"
           id="path4992" />
        <path
           d="m 350.7,268.7 c 0.9,-0.5 1.5,-1.5 1.5,-2.5 v -6.8 c 0,-1 -0.6,-2 -1.5,-2.5 l -24,-13.9 c -0.9,-0.5 -2,-0.5 -2.9,0 l -24.2,14 c -0.9,0.5 -1.5,1.5 -1.5,2.5 v 27.9 c 0,1 0.6,2 1.5,2.5 l 24,13.7 c 0.9,0.5 2,0.5 2.9,0 l 14.5,-8.1 c 0.5,-0.3 0.7,-0.7 0.8,-1.3 0,-0.5 -0.3,-1 -0.7,-1.3 l -24.3,-14 c -0.5,-0.3 -0.7,-0.7 -0.7,-1.3 V 269 c 0,-0.5 0.3,-1 0.7,-1.3 l 7.6,-4.4 c 0.4,-0.3 1,-0.3 1.5,0 l 7.6,4.4 c 0.5,0.3 0.7,0.7 0.7,1.3 v 6.9 c 0,0.5 0.3,1 0.7,1.3 0.5,0.3 1,0.3 1.5,0 z"
           fill="#ffffff"
           id="path4994" />
        <path
           d="m 179.1,242.8 c 0.9,-0.5 2,-0.5 2.9,0 l 24.2,13.9 c 0.9,0.5 1.5,1.5 1.5,2.5 v 27.9 c 0,1 -0.6,2 -1.5,2.5 l -24.2,14 c -0.9,0.5 -2,0.5 -2.9,0 l -24.2,-14 c -0.9,-0.5 -1.5,-1.5 -1.5,-2.5 v -27.9 c 0,-1 0.6,-2 1.5,-2.5 z"
           fill="#ffffff"
           id="path4996" />
        <path
           d="m 397.6,304.1 c -0.8,0 -1.7,-0.2 -2.4,-0.6 l -7.6,-4.5 c -1.1,-0.6 -0.6,-0.9 -0.2,-1 1.5,-0.5 1.8,-0.6 3.4,-1.6 0.2,-0.1 0.4,-0.1 0.6,0 l 5.8,3.5 c 0.2,0.1 0.5,0.1 0.7,0 l 22.8,-13.2 c 0.2,-0.1 0.3,-0.4 0.3,-0.6 v -26.3 c 0,-0.3 -0.1,-0.5 -0.4,-0.6 L 398,246.1 c -0.2,-0.1 -0.5,-0.1 -0.7,0 l -22.8,13.1 c -0.2,0.1 -0.4,0.4 -0.4,0.6 v 26.3 c 0,0.3 0.1,0.5 0.4,0.6 l 6.2,3.6 c 3.4,1.7 5.5,-0.3 5.5,-2.3 v -26 c 0,-0.4 0.3,-0.7 0.7,-0.7 h 2.9 c 0.4,0 0.7,0.3 0.7,0.7 v 26 c 0,4.5 -2.5,7.1 -6.7,7.1 -1.3,0 -2.4,0 -5.3,-1.4 l -6,-3.4 c -1.5,-0.9 -2.4,-2.4 -2.4,-4.2 v -26.3 c 0,-1.7 0.9,-3.3 2.4,-4.2 l 22.8,-13.2 c 1.4,-0.8 3.4,-0.8 4.8,0 l 22.8,13.2 c 1.5,0.9 2.4,2.4 2.4,4.2 v 26.3 c 0,1.7 -0.9,3.3 -2.4,4.2 L 400,303.5 c -0.7,0.4 -1.5,0.6 -2.4,0.6 z"
           fill="#ffffff"
           id="path4998" />
        <path
           d="m 404.7,286 c -10,0 -12.1,-4.6 -12.1,-8.4 0,-0.4 0.3,-0.7 0.7,-0.7 h 2.9 c 0.3,0 0.6,0.2 0.7,0.6 0.4,3 1.8,4.5 7.8,4.5 4.8,0 6.8,-1.1 6.8,-3.6 0,-1.5 -0.6,-2.6 -8,-3.3 -6.2,-0.6 -10.1,-2 -10.1,-7 0,-4.6 3.9,-7.3 10.4,-7.3 7.3,0 10.9,2.5 11.4,8 0,0.2 0,0.4 -0.2,0.5 -0.1,0.1 -0.3,0.2 -0.5,0.2 h -3 c -0.3,0 -0.6,-0.2 -0.6,-0.5 -0.7,-3.2 -2.4,-4.2 -7.1,-4.2 -5.2,0 -5.9,1.8 -5.9,3.2 0,1.7 0.7,2.1 7.8,3.1 7,0.9 10.3,2.2 10.3,7.2 0,4.8 -4.1,7.7 -11.3,7.7 z"
           fill="#ffffff"
           id="path5000" />
        <path
           d="m 324.9,267.4 c 0.2,-0.1 0.4,-0.1 0.6,0 l 4.6,2.7 c 0.2,0.1 0.3,0.3 0.3,0.5 v 5.4 c 0,0.2 -0.1,0.4 -0.3,0.5 l -4.6,2.7 c -0.2,0.1 -0.4,0.1 -0.6,0 l -4.6,-2.7 c -0.2,-0.1 -0.3,-0.3 -0.3,-0.5 v -5.4 c 0,-0.2 0.1,-0.4 0.3,-0.5 z"
           fill="#ffffff"
           id="path5002" />
        <g
           id="g5006">
          <path
             d="m 441,249.6 c 0,2.4 -2,4.4 -4.4,4.4 -2.4,0 -4.4,-2 -4.4,-4.4 0,-2.5 2,-4.4 4.4,-4.4 2.4,0 4.4,2 4.4,4.4 z m -8.1,0 c 0,2 1.7,3.7 3.7,3.7 2,0 3.7,-1.7 3.7,-3.7 0,-2 -1.7,-3.7 -3.7,-3.7 -2,0.1 -3.7,1.7 -3.7,3.7 z m 2.1,-2.4 h 1.7 c 0.6,0 1.7,0 1.7,1.3 0,0.9 -0.6,1.1 -0.9,1.2 0.7,0 0.7,0.5 0.8,1.1 0,0.4 0.1,1.1 0.3,1.3 h -1 c 0,-0.2 -0.2,-1.5 -0.2,-1.6 -0.1,-0.3 -0.2,-0.4 -0.5,-0.4 H 436 v 2 h -1 z m 0.9,2.1 h 0.8 c 0.6,0 0.7,-0.4 0.7,-0.7 0,-0.7 -0.5,-0.7 -0.7,-0.7 h -0.8 v 1.4 c 0,0 0,0 0,0 z"
             fill="#ffffff"
             id="path5004" />
        </g>
      </g>
    </g>
  </g>
</svg>
